<?xml version="1.0" encoding="UTF-8"?>
<svg width="375px" height="280px" viewBox="0 0 375 280" version="1.1" xmlns="http://www.w3.org/2000/svg" xmlns:xlink="http://www.w3.org/1999/xlink">
    <!-- Generator: Sketch 48.2 (47327) - http://www.bohemiancoding.com/sketch -->
    <title>WeekDaysSegmentedControl</title>
    <desc>Created with Sketch.</desc>
    <defs>
        <rect id="path-1" x="21" y="29" width="334" height="48" rx="10"></rect>
    </defs>
    <g id="Page-1" stroke="none" stroke-width="1" fill="none" fill-rule="evenodd">
        <g id="WeekDaysSegmentedControl">
            <g id="Rectangle-Copy-8">
                <use fill="#DDDEE0" fill-rule="evenodd" xlink:href="#path-1"></use>
                <rect stroke="#000000" stroke-width="1" x="20.5" y="28.5" width="335" height="49" rx="10"></rect>
            </g>
            <path d="M31,29 L69,29 L69,77 L31,77 C25.4771525,77 21,72.5228475 21,67 L21,39 C21,33.4771525 25.4771525,29 31,29 Z" id="Rectangle-Copy" fill="#DDDEE0"></path>
            <rect id="Rectangle-Copy-3" fill="#DDDEE0" x="69" y="29" width="48" height="48"></rect>
            <rect id="Rectangle-Copy-4" fill="#3598DB" x="116" y="29" width="48" height="48"></rect>
            <rect id="Rectangle-Copy-5" fill="#3598DB" x="164" y="29" width="48" height="48"></rect>
            <rect id="Rectangle-Copy-6" fill="#DDDEE0" x="212" y="29" width="48" height="48"></rect>
            <rect id="Rectangle-Copy-7" fill="#3598DB" x="259" y="29" width="48" height="48"></rect>
            <path d="M307,29 L345,29 C350.522847,29 355,33.4771525 355,39 L355,67 C355,72.5228475 350.522847,77 345,77 L307,77 L307,29 Z" id="Rectangle-Copy-2" fill="#DDDEE0"></path>
            <text id="SUN" font-family="OpenSans-Semibold, Open Sans" font-size="14" font-weight="500" fill="#354A5F">
                <tspan x="30.4736328" y="59">SUN</tspan>
            </text>
            <text id="MON" font-family="OpenSans-Semibold, Open Sans" font-size="14" font-weight="500" fill="#354A5F">
                <tspan x="75.0478516" y="59">MON</tspan>
            </text>
            <text id="TUE" font-family="OpenSans-Semibold, Open Sans" font-size="14" font-weight="500" fill="#FFFFFF">
                <tspan x="126.436523" y="59">TUE</tspan>
            </text>
            <text id="WED" font-family="OpenSans-Semibold, Open Sans" font-size="14" font-weight="500" fill="#FFFFFF">
                <tspan x="172.335449" y="59">WED</tspan>
            </text>
            <text id="THU" font-family="OpenSans-Semibold, Open Sans" font-size="14" font-weight="500" fill="#354A5F">
                <tspan x="221.086426" y="59">THU</tspan>
            </text>
            <text id="FRI" font-family="OpenSans-Semibold, Open Sans" font-size="14" font-weight="500" fill="#FFFFFF">
                <tspan x="272.164062" y="59">FRI</tspan>
            </text>
            <text id="SAT" font-family="OpenSans-Semibold, Open Sans" font-size="14" font-weight="500" fill="#354A5F">
                <tspan x="318.050781" y="59">SAT</tspan>
            </text>
            <text id="font" font-family="OpenSans-Semibold, Open Sans" font-size="15" font-weight="500" fill="#000000">
                <tspan x="230" y="113">font</tspan>
            </text>
            <text id="borderColor" font-family="OpenSans-Semibold, Open Sans" font-size="15" font-weight="500" fill="#000000">
                <tspan x="230" y="202.4">borderColor</tspan>
            </text>
            <text id="borderWidth" font-family="OpenSans-Semibold, Open Sans" font-size="15" font-weight="500" fill="#000000">
                <tspan x="230" y="232.2">borderWidth</tspan>
            </text>
            <text id="cornerRadius" font-family="OpenSans-Semibold, Open Sans" font-size="15" font-weight="500" fill="#000000">
                <tspan x="230" y="262">cornerRadius</tspan>
            </text>
            <text id="selectedColor" font-family="OpenSans-Semibold, Open Sans" font-size="15" font-weight="500" fill="#000000">
                <tspan x="230" y="142.8">selectedColor</tspan>
            </text>
            <text id="deselectedColor" font-family="OpenSans-Semibold, Open Sans" font-size="15" font-weight="500" fill="#000000">
                <tspan x="230" y="172.6">deselectedColor</tspan>
            </text>
            <polyline id="Line" stroke="#666666" stroke-width="0.8" stroke-linecap="square" points="221 109 203 109 153 59"></polyline>
            <polyline id="Line-Copy-2" stroke="#666666" stroke-width="0.8" stroke-linecap="square" points="221 139 203 139 133 69.5"></polyline>
            <polyline id="Line-Copy-3" stroke="#666666" stroke-width="0.8" stroke-linecap="square" points="222 169 203.930502 169 105 70.5"></polyline>
            <polyline id="Line-Copy" stroke="#666666" stroke-width="0.8" stroke-linecap="square" points="221 199 202.953964 199 84 77.5"></polyline>
            <polyline id="Line-Copy-4" stroke="#666666" stroke-width="0.8" stroke-linecap="square" points="221 227 202.953964 227 55 77.5"></polyline>
            <polyline id="Line-Copy-5" stroke="#666666" stroke-width="0.8" stroke-linecap="square" points="221 257 202.953964 257 24 74.5"></polyline>
            <circle id="Oval" fill="#666666" cx="24" cy="74" r="2"></circle>
            <circle id="Oval-Copy-4" fill="#666666" cx="55" cy="77" r="2"></circle>
            <circle id="Oval-Copy-5" fill="#666666" cx="84" cy="77" r="2"></circle>
            <circle id="Oval-Copy" fill="#666666" cx="105" cy="70" r="2"></circle>
            <circle id="Oval-Copy-2" fill="#666666" cx="133" cy="70" r="2"></circle>
            <circle id="Oval-Copy-3" fill="#666666" cx="152" cy="58" r="2"></circle>
        </g>
    </g>
</svg>